HIERARCHY
ROOT Hips
{
	OFFSET 0.000000 89.005402 0.000000
	CHANNELS 6 Xposition Yposition Zposition Xrotation Yrotation Zrotation
	JOINT Spine
	{
		OFFSET 0.116900 10.681000 0.373400
		CHANNELS 3 Xrotation Yrotation Zrotation
		JOINT Spine1
		{
			OFFSET 0.000000 13.840401 0.053500
			CHANNELS 3 Xrotation Yrotation Zrotation
			JOINT Spine2
			{
				OFFSET 0.000000 14.712700 -0.366200
				CHANNELS 3 Xrotation Yrotation Zrotation
				JOINT Neck
				{
					OFFSET 0.000000 35.415497 -3.314200
					CHANNELS 3 Xrotation Yrotation Zrotation
					JOINT Head
					{
						OFFSET 0.000000 16.899200 1.218300
						CHANNELS 3 Xrotation Yrotation Zrotation
						JOINT HeadTop_End
						{
							OFFSET 0.000000 22.206207 2.192500
							CHANNELS 3 Xrotation Yrotation Zrotation
							End Site
							{
								OFFSET 0.000000 22.314178 0.000000
							}
						}
					}
				}
				JOINT LeftShoulder
				{
					OFFSET 12.896400 26.716293 -4.548400
					CHANNELS 3 Xrotation Yrotation Zrotation
					JOINT LeftArm
					{
						OFFSET 19.027000 -4.857010 -1.718400
						CHANNELS 3 Xrotation Yrotation Zrotation
						JOINT LeftForeArm
						{
							OFFSET 24.179897 0.000000 0.000000
							CHANNELS 3 Xrotation Yrotation Zrotation
							JOINT LeftHand
							{
								OFFSET 27.156403 0.000000 0.000000
								CHANNELS 3 Xrotation Yrotation Zrotation
								JOINT LeftHandIndex1
								{
									OFFSET 16.441200 0.000000 0.000000
									CHANNELS 3 Xrotation Yrotation Zrotation
									JOINT LeftHandIndex2
									{
										OFFSET 4.821899 0.000000 0.000000
										CHANNELS 3 Xrotation Yrotation Zrotation
										JOINT LeftHandIndex3
										{
											OFFSET 6.386497 0.000000 0.000000
											CHANNELS 3 Xrotation Yrotation Zrotation
											JOINT LeftHandIndex4
											{
												OFFSET 5.188988 0.000000 0.000000
												CHANNELS 3 Xrotation Yrotation Zrotation
												End Site
												{
													OFFSET -0.178703 5.185913 0.000177
												}
											}
										}
									}
								}
								JOINT LeftHandThumb1
								{
									OFFSET 6.534897 -5.032593 5.900300
									CHANNELS 3 Xrotation Yrotation Zrotation
									JOINT LeftHandThumb2
									{
										OFFSET 3.818176 -2.204422 2.204423
										CHANNELS 3 Xrotation Yrotation Zrotation
										JOINT LeftHandThumb3
										{
											OFFSET 3.252098 -1.877594 1.877601
											CHANNELS 3 Xrotation Yrotation Zrotation
											JOINT LeftHandThumb4
											{
												OFFSET 5.251778 -3.032120 3.032117
												CHANNELS 3 Xrotation Yrotation Zrotation
												End Site
												{
													OFFSET 0.000023 6.780014 0.000000
												}
											}
										}
									}
								}
							}
						}
					}
				}
				JOINT RightShoulder
				{
					OFFSET -12.896300 26.716293 -4.548400
					CHANNELS 3 Xrotation Yrotation Zrotation
					JOINT RightArm
					{
						OFFSET -19.027000 -4.857010 -1.718400
						CHANNELS 3 Xrotation Yrotation Zrotation
						JOINT RightForeArm
						{
							OFFSET -24.179897 0.000000 0.000000
							CHANNELS 3 Xrotation Yrotation Zrotation
							JOINT RightHand
							{
								OFFSET -27.156403 0.000000 0.000000
								CHANNELS 3 Xrotation Yrotation Zrotation
								JOINT RightHandThumb1
								{
									OFFSET -6.591202 -4.852203 5.988100
									CHANNELS 3 Xrotation Yrotation Zrotation
									JOINT RightHandThumb2
									{
										OFFSET -3.818176 -2.204422 2.204423
										CHANNELS 3 Xrotation Yrotation Zrotation
										JOINT RightHandThumb3
										{
											OFFSET -3.252098 -1.877594 1.877601
											CHANNELS 3 Xrotation Yrotation Zrotation
											JOINT RightHandThumb4
											{
												OFFSET -5.251778 -3.032120 3.032117
												CHANNELS 3 Xrotation Yrotation Zrotation
												End Site
												{
													OFFSET -0.000023 6.780014 0.000000
												}
											}
										}
									}
								}
								JOINT RightHandIndex1
								{
									OFFSET -16.029404 0.000000 0.000000
									CHANNELS 3 Xrotation Yrotation Zrotation
									JOINT RightHandIndex2
									{
										OFFSET -5.213303 0.000000 0.000000
										CHANNELS 3 Xrotation Yrotation Zrotation
										JOINT RightHandIndex3
										{
											OFFSET -6.386528 0.000000 0.000000
											CHANNELS 3 Xrotation Yrotation Zrotation
											JOINT RightHandIndex4
											{
												OFFSET -5.189026 0.000000 0.000000
												CHANNELS 3 Xrotation Yrotation Zrotation
												End Site
												{
													OFFSET 0.236702 5.183624 0.001972
												}
											}
										}
									}
								}
							}
						}
					}
				}
			}
		}
	}
	JOINT LeftUpLeg
	{
		OFFSET 14.073000 -7.904099 -1.463000
		CHANNELS 3 Xrotation Yrotation Zrotation
		JOINT LeftLeg
		{
			OFFSET -0.109806 -34.073280 4.093200
			CHANNELS 3 Xrotation Yrotation Zrotation
			JOINT LeftFoot
			{
				OFFSET 0.109806 -29.899420 -6.319000
				CHANNELS 3 Xrotation Yrotation Zrotation
				JOINT LeftToeBase
				{
					OFFSET 1.551100 -14.988700 20.535801
					CHANNELS 3 Xrotation Yrotation Zrotation
					JOINT LeftToe_End
					{
						OFFSET 0.221200 0.570800 13.248301
						CHANNELS 3 Xrotation Yrotation Zrotation
						End Site
						{
							OFFSET 0.000000 13.262435 0.000000
						}
					}
				}
			}
		}
	}
	JOINT RightUpLeg
	{
		OFFSET -13.839300 -7.904099 -1.463000
		CHANNELS 3 Xrotation Yrotation Zrotation
		JOINT RightLeg
		{
			OFFSET 0.109694 -34.073219 4.093300
			CHANNELS 3 Xrotation Yrotation Zrotation
			JOINT RightFoot
			{
				OFFSET -0.109694 -29.899384 -6.319200
				CHANNELS 3 Xrotation Yrotation Zrotation
				JOINT RightToeBase
				{
					OFFSET -1.551100 -14.988700 20.535801
					CHANNELS 3 Xrotation Yrotation Zrotation
					JOINT RightToe_End
					{
						OFFSET -0.221200 0.570900 13.248299
						CHANNELS 3 Xrotation Yrotation Zrotation
						End Site
						{
							OFFSET 0.000000 13.262440 0.000000
						}
					}
				}
			}
		}
	}
}
MOTION
Frames: 4
Frame Time: 0.033333
-0.951257 77.329887 0.762621 -1.900591 -34.903353 -4.920229 5.478195 9.809869 -1.385877 1.707497 3.707391 0.147857 1.683067 3.721806 0.128156 9.474234 0.271382 0.415719 8.248509 4.964726 -9.523748 -0.000001 0.000001 0.000001 0.822264 -2.600326 3.245009 -38.742858 -17.351355 -51.416742 0.000810 -97.493048 0.000815 -12.453615 -6.665077 -1.999782 7.775664 6.956323 -86.152721 10.250108 6.003564 -119.372063 9.029913 6.538661 -108.236423 -0.000000 0.000001 0.000000 4.891679 7.994786 1.884004 10.475075 36.544340 -16.206436 18.107197 67.043224 3.186295 -0.000002 0.000000 0.000001 2.311033 6.659103 -6.707533 -43.283595 29.498074 60.165162 0.000002 118.000739 0.000004 -10.358463 15.653933 -23.019168 2.101971 -10.083015 3.633758 25.660744 -30.716734 6.844805 36.126360 -53.497805 18.680892 -0.000004 0.000003 -0.000000 9.556169 -7.137703 86.157912 10.350207 -6.061986 119.375546 9.118079 -6.602323 108.238841 0.000000 -0.000001 -0.000002 -30.346107 -9.464358 24.665661 28.140142 -0.170519 3.147355 7.054004 0.399558 -25.008873 -0.186635 0.000029 -0.000003 -0.000000 -0.000000 0.000000 9.088802 -6.821305 -14.940947 23.324780 -7.794047 -2.870795 -20.035607 -17.265414 27.197754 -3.119185 0.000033 0.000002 -0.000000 -0.000001 -0.000000 
-0.891063 77.286873 0.724993 -1.845305 -34.832684 -4.923976 5.460837 9.778255 -1.381631 1.709195 3.695180 0.139629 1.685458 3.709239 0.120559 9.422579 0.311042 0.313904 8.281964 5.052992 -9.544353 -0.000000 -0.000002 -0.000000 0.803573 -2.501967 3.311339 -38.799392 -17.533722 -51.422172 -0.000487 -97.579716 -0.000476 -12.660519 -6.539621 -2.190776 7.775677 6.956305 -86.152721 10.250106 6.003566 -119.372063 9.029918 6.538645 -108.236450 -0.000000 0.000002 -0.000000 4.891672 7.994784 1.883997 10.475066 36.544353 -16.206427 18.107197 67.043224 3.186299 0.000000 0.000003 0.000001 2.322936 6.700978 -6.649683 -43.449654 29.625006 60.103670 0.000029 118.095883 -0.000033 -10.677150 15.765598 -23.054323 2.101974 -10.083010 3.633753 25.660763 -30.716727 6.844845 36.126360 -53.497798 18.680892 -0.000001 0.000002 0.000000 9.556172 -7.137698 86.157919 10.350208 -6.061984 119.375546 9.118078 -6.602323 108.238841 0.000001 -0.000001 0.000000 -30.619356 -9.427691 24.603127 28.275964 -0.299553 3.225886 7.092305 0.396587 -24.971283 -0.056426 -0.000010 0.000002 0.000000 -0.000000 0.000000 8.971360 -6.764106 -14.939767 23.456738 -7.683302 -2.882273 -20.174801 -17.203201 27.171667 -3.055694 -0.000027 -0.000013 0.000000 -0.000002 -0.000000 
-0.874801 77.240189 0.690132 -1.664642 -34.822193 -4.839872 5.439959 9.733874 -1.418620 1.709847 3.678961 0.118190 1.686639 3.692648 0.099806 9.301306 0.388015 0.146413 8.293792 5.246831 -9.559581 0.000002 -0.000000 0.000000 0.773435 -2.337826 3.384445 -38.795205 -17.778658 -51.452734 0.000420 -98.152837 0.000406 -13.149547 -6.679044 -2.037885 7.775674 6.956315 -86.152714 10.250104 6.003560 -119.372063 9.029918 6.538646 -108.236403 -0.000000 -0.000001 0.000000 4.891670 7.994784 1.883991 10.475076 36.544347 -16.206441 18.107205 67.043224 3.186298 0.000001 -0.000004 -0.000001 2.358299 6.828181 -6.565698 -43.833948 29.771599 59.979334 0.000063 118.191875 -0.000056 -10.835899 15.588630 -22.870972 2.101970 -10.083008 3.633749 25.660748 -30.716723 6.844845 36.126356 -53.497805 18.680895 -0.000002 -0.000002 -0.000000 9.556165 -7.137703 86.157905 10.350210 -6.061982 119.375546 9.118077 -6.602324 108.238848 -0.000000 -0.000002 0.000002 -30.859071 -9.509267 24.580801 28.343887 -0.337206 3.280743 7.115678 0.401213 -25.025873 -0.000499 0.000003 -0.000000 -0.000000 0.000000 0.000000 8.675049 -6.803766 -14.943814 23.660622 -7.584713 -2.951172 -20.339950 -17.051200 27.182114 -3.103131 0.000007 0.000003 -0.000000 0.000001 -0.000000 
-0.910342 77.170265 0.663451 -1.337353 -34.775116 -4.660780 5.405912 9.662840 -1.504217 1.706155 3.653072 0.082384 1.683248 3.666400 0.064800 9.080001 0.511745 -0.100752 8.309506 5.565037 -9.558459 -0.000000 0.000000 0.000000 0.728247 -2.092496 3.485544 -38.721005 -18.133867 -51.568331 0.000375 -99.398193 0.000383 -14.129060 -7.187226 -1.421827 7.775677 6.956315 -86.152748 10.250108 6.003561 -119.372063 9.029917 6.538653 -108.236416 -0.000000 -0.000001 0.000000 4.891679 7.994783 1.883994 10.475075 36.544367 -16.206447 18.107202 67.043224 3.186302 -0.000000 0.000000 -0.000002 2.428322 7.083922 -6.459108 -44.508405 29.889953 59.799338 0.000001 118.287088 -0.000004 -10.767028 15.070245 -22.436282 2.101968 -10.083014 3.633762 25.660749 -30.716706 6.844842 36.126360 -53.497798 18.680894 0.000003 -0.000002 -0.000001 9.556168 -7.137713 86.157891 10.350208 -6.061987 119.375560 9.118078 -6.602325 108.238841 -0.000000 -0.000001 0.000001 -31.163968 -9.736313 24.586053 28.405266 -0.351242 3.270883 7.121200 0.413981 -25.128555 -0.004155 -0.000003 0.000003 0.000000 0.000000 -0.000000 8.178178 -7.171182 -14.938607 23.952758 -7.499294 -3.139079 -20.561887 -16.705948 27.288776 -3.233856 0.000014 -0.000002 -0.000000 -0.000000 -0.000000 
